<svg xmlns="http://www.w3.org/2000/svg" viewBox="0 0 900 520" font-family="-apple-system,Segoe UI,Roboto,sans-serif">
  <defs>
    <linearGradient id="bg1" x1="0" y1="0" x2="0" y2="1"><stop offset="0" stop-color="#1a1a2e"/><stop offset="1" stop-color="#0f0f1a"/></linearGradient>
    <linearGradient id="bg2" x1="0" y1="0" x2="0" y2="1"><stop offset="0" stop-color="#f0f2f5"/><stop offset="1" stop-color="#e8eaed"/></linearGradient>
    <filter id="shadow"><feDropShadow dx="0" dy="2" stdDeviation="3" flood-opacity=".15"/></filter>
  </defs>

  <!-- Phone mockup -->
  <rect x="20" y="20" width="340" height="480" rx="24" fill="#1c1c2e" stroke="#333" stroke-width="2"/>
  <!-- Notch -->
  <rect x="140" y="32" width="100" height="6" rx="3" fill="#2a2a3e"/>

  <!-- Phone header -->
  <rect x="20" y="52" width="340" height="46" fill="#1a1a2e"/>
  <text x="48" y="80" font-size="17" font-weight="700" fill="#fff">🚛 <tspan fill="#00e676">BaySync</tspan></text>
  <circle cx="310" cy="76" r="5" fill="#00e676"/>
  <text x="322" y="80" font-size="10" fill="#888">Online</text>

  <!-- Door grid -->
  <!-- Row 1 -->
  <rect x="38" y="110" width="92" height="80" rx="12" fill="#1a2e1a" stroke="#00e676" stroke-width="2" filter="url(#shadow)"/>
  <text x="84" y="148" text-anchor="middle" font-size="28" font-weight="800" fill="#69f0ae">18</text>
  <text x="84" y="174" text-anchor="middle" font-size="10" font-weight="600" fill="#69f0ae">🟢 LIBRE</text>

  <rect x="144" y="110" width="92" height="80" rx="12" fill="#2e1a1a" stroke="#ff1744" stroke-width="2" filter="url(#shadow)"/>
  <text x="190" y="148" text-anchor="middle" font-size="28" font-weight="800" fill="#ff5252">19</text>
  <text x="190" y="174" text-anchor="middle" font-size="10" font-weight="600" fill="#ff5252">🔴 OCUPADO</text>

  <rect x="250" y="110" width="92" height="80" rx="12" fill="#1a2e1a" stroke="#00e676" stroke-width="2" filter="url(#shadow)"/>
  <text x="296" y="148" text-anchor="middle" font-size="28" font-weight="800" fill="#69f0ae">20</text>
  <text x="296" y="174" text-anchor="middle" font-size="10" font-weight="600" fill="#69f0ae">🟢 LIBRE</text>

  <!-- Row 2 -->
  <rect x="38" y="204" width="92" height="80" rx="12" fill="#2e1a1a" stroke="#ff1744" stroke-width="2" filter="url(#shadow)"/>
  <text x="84" y="242" text-anchor="middle" font-size="28" font-weight="800" fill="#ff5252">21</text>
  <text x="84" y="268" text-anchor="middle" font-size="10" font-weight="600" fill="#ff5252">🔴 OCUPADO</text>

  <rect x="144" y="204" width="92" height="80" rx="12" fill="#2e2a1a" stroke="#ffd740" stroke-width="2" filter="url(#shadow)"/>
  <text x="190" y="242" text-anchor="middle" font-size="28" font-weight="800" fill="#ffd740">22</text>
  <text x="190" y="268" text-anchor="middle" font-size="10" font-weight="600" fill="#ffd740">🟡 PARCIAL</text>

  <rect x="250" y="204" width="92" height="80" rx="12" fill="#1a2e1a" stroke="#00e676" stroke-width="2" filter="url(#shadow)"/>
  <text x="296" y="242" text-anchor="middle" font-size="28" font-weight="800" fill="#69f0ae">23</text>
  <text x="296" y="268" text-anchor="middle" font-size="10" font-weight="600" fill="#69f0ae">🟢 LIBRE</text>

  <!-- Row 3 -->
  <rect x="38" y="298" width="92" height="80" rx="12" fill="#1a2e1a" stroke="#00e676" stroke-width="2" filter="url(#shadow)"/>
  <text x="84" y="336" text-anchor="middle" font-size="28" font-weight="800" fill="#69f0ae">24</text>
  <text x="84" y="362" text-anchor="middle" font-size="10" font-weight="600" fill="#69f0ae">🟢 LIBRE</text>

  <rect x="144" y="298" width="92" height="80" rx="12" fill="#2e1a1a" stroke="#ff1744" stroke-width="2" filter="url(#shadow)"/>
  <text x="190" y="336" text-anchor="middle" font-size="28" font-weight="800" fill="#ff5252">25</text>
  <text x="190" y="362" text-anchor="middle" font-size="10" font-weight="600" fill="#ff5252">🔴 OCUPADO</text>

  <rect x="250" y="298" width="92" height="80" rx="12" fill="#2e2a1a" stroke="#ffd740" stroke-width="2" filter="url(#shadow)"/>
  <text x="296" y="336" text-anchor="middle" font-size="28" font-weight="800" fill="#ffd740">26</text>
  <text x="296" y="362" text-anchor="middle" font-size="10" font-weight="600" fill="#ffd740">🟡 PARCIAL</text>

  <!-- Send button -->
  <rect x="38" y="396" width="304" height="50" rx="12" fill="#00e676"/>
  <text x="190" y="427" text-anchor="middle" font-size="17" font-weight="700" fill="#111">📤 ENVIAR ESTADO</text>
  <text x="190" y="443" text-anchor="middle" font-size="10" fill="#333" opacity=".7">Último envío: 19:22 · Hay cambios</text>

  <!-- Notification banner -->
  <rect x="38" y="456" width="304" height="34" rx="8" fill="#ffd740"/>
  <text x="190" y="478" text-anchor="middle" font-size="12" font-weight="600" fill="#111">🔔 Bo solicita actualización — pulsa ENVIAR</text>

  <!-- Divider -->
  <line x1="380" y1="20" x2="380" y2="500" stroke="#ccc" stroke-width="1" stroke-dasharray="5,5"/>

  <!-- PANEL BALIE mockup -->
  <rect x="400" y="20" width="480" height="480" rx="16" fill="#fff" stroke="#ddd" stroke-width="1" filter="url(#shadow)"/>

  <!-- Panel header -->
  <rect x="400" y="20" width="480" height="50" rx="16" fill="#1a237e"/>
  <rect x="400" y="54" width="480" height="16" fill="#1a237e"/>
  <text x="430" y="50" font-size="18" font-weight="700" fill="#fff">🚛 <tspan fill="#7c4dff">BaySync</tspan> · Panel BALIE</text>
  <circle cx="810" cy="46" r="4" fill="#00c853"/>
  <text x="820" y="50" font-size="11" fill="rgba(255,255,255,.7)">En vivo</text>

  <!-- Grid -->
  <!-- Row 1 -->
  <rect x="420" y="86" width="135" height="76" rx="10" fill="#e8f5e9" stroke="#00c853" stroke-width="2"/>
  <text x="487" y="122" text-anchor="middle" font-size="26" font-weight="800" fill="#2e7d32">18</text>
  <text x="487" y="148" text-anchor="middle" font-size="11" font-weight="600" fill="#2e7d32">🟢 LIBRE</text>

  <rect x="570" y="86" width="135" height="76" rx="10" fill="#ffebee" stroke="#ff1744" stroke-width="2"/>
  <text x="637" y="122" text-anchor="middle" font-size="26" font-weight="800" fill="#c62828">19</text>
  <text x="637" y="148" text-anchor="middle" font-size="11" font-weight="600" fill="#c62828">🔴 OCUPADO</text>

  <rect x="720" y="86" width="135" height="76" rx="10" fill="#e8f5e9" stroke="#00c853" stroke-width="2"/>
  <text x="787" y="122" text-anchor="middle" font-size="26" font-weight="800" fill="#2e7d32">20</text>
  <text x="787" y="148" text-anchor="middle" font-size="11" font-weight="600" fill="#2e7d32">🟢 LIBRE</text>

  <!-- Row 2 -->
  <rect x="420" y="178" width="135" height="76" rx="10" fill="#ffebee" stroke="#ff1744" stroke-width="2"/>
  <text x="487" y="214" text-anchor="middle" font-size="26" font-weight="800" fill="#c62828">21</text>
  <text x="487" y="240" text-anchor="middle" font-size="11" font-weight="600" fill="#c62828">🔴 OCUPADO</text>

  <rect x="570" y="178" width="135" height="76" rx="10" fill="#fff8e1" stroke="#ffc107" stroke-width="2"/>
  <text x="637" y="214" text-anchor="middle" font-size="26" font-weight="800" fill="#f57f17">22</text>
  <text x="637" y="240" text-anchor="middle" font-size="11" font-weight="600" fill="#f57f17">🟡 PARCIAL</text>

  <rect x="720" y="178" width="135" height="76" rx="10" fill="#e8f5e9" stroke="#00c853" stroke-width="2"/>
  <text x="787" y="214" text-anchor="middle" font-size="26" font-weight="800" fill="#2e7d32">23</text>
  <text x="787" y="240" text-anchor="middle" font-size="11" font-weight="600" fill="#2e7d32">🟢 LIBRE</text>

  <!-- Row 3 -->
  <rect x="420" y="270" width="135" height="76" rx="10" fill="#e8f5e9" stroke="#00c853" stroke-width="2"/>
  <text x="487" y="306" text-anchor="middle" font-size="26" font-weight="800" fill="#2e7d32">24</text>
  <text x="487" y="332" text-anchor="middle" font-size="11" font-weight="600" fill="#2e7d32">🟢 LIBRE</text>

  <rect x="570" y="270" width="135" height="76" rx="10" fill="#ffebee" stroke="#ff1744" stroke-width="2"/>
  <text x="637" y="306" text-anchor="middle" font-size="26" font-weight="800" fill="#c62828">25</text>
  <text x="637" y="332" text-anchor="middle" font-size="11" font-weight="600" fill="#c62828">🔴 OCUPADO</text>

  <rect x="720" y="270" width="135" height="76" rx="10" fill="#fff8e1" stroke="#ffc107" stroke-width="2"/>
  <text x="787" y="306" text-anchor="middle" font-size="26" font-weight="800" fill="#f57f17">26</text>
  <text x="787" y="332" text-anchor="middle" font-size="11" font-weight="600" fill="#f57f17">🟡 PARCIAL</text>

  <!-- Request button bar -->
  <rect x="420" y="366" width="435" height="56" rx="12" fill="#1a237e"/>
  <text x="637" y="393" text-anchor="middle" font-size="16" font-weight="700" fill="#fff">🔔 SOLICITAR ACTUALIZACIÓN</text>
  <text x="637" y="411" text-anchor="middle" font-size="11" fill="rgba(255,255,255,.65)">Toca para enviar aviso al almacén → suena su teléfono</text>

  <!-- Info bar -->
  <text x="430" y="448" font-size="12" fill="#888">🕐 Última actualización: <tspan font-weight="700" fill="#333">19:22:15</tspan></text>
  <text x="430" y="468" font-size="12" fill="#888">📤 Enviado por: <tspan font-weight="700" fill="#333">Almacén</tspan></text>
  <text x="430" y="488" font-size="12" fill="#888">🔄 Sincronización en vivo</text>

  <!-- Labels -->
  <text x="190" y="510" text-anchor="middle" font-size="12" fill="#666">📱 Almacén (index.html)</text>
  <text x="640" y="510" text-anchor="middle" font-size="12" fill="#666">💻 Panel BALIE (balie.html)</text>
</svg>
